<svg version="1.1" xmlns="http://www.w3.org/2000/svg" viewBox="0 0 100 100">
<path id="Path" fill="#EBEBEB" d="M15,17.5V90c0,5.5,4.5,10,10,10h50c5.5,0,10-4.5,10-10
	V25H70c-5.5,0-10-4.5-10-10V0H25c-5.5,0-10,4.5-10,10V17.5"/>
<path fill="#EBEBEB" d="M85,25.2H69.9c-5.6,0-10.1-4.5-10.1-10.1V0L85,25.2z"/>
<path opacity="0.2" d="M69.9,23.9c-5.6,0-10.1-4.5-10.1-9.9
	v1.2c0,5.5,4.5,9.9,10.1,9.9H85l-1.3-1.2H69.9z"/>
<path opacity="0.2" d="M75,98.8H25c-5.5,0-10-4.5-10-9.9v1.2
	c0,5.5,4.5,9.9,10,9.9h50c5.5,0,10-4.5,10-9.9v-1.2C85,94.3,80.5,98.8,75,98.8z"/>
</svg>
