<?xml version="1.0" encoding="UTF-8"?><svg version="1.1" viewBox="0 0 24 24" xmlns="http://www.w3.org/2000/svg" xmlns:xlink="http://www.w3.org/1999/xlink"><!--Generated by IJSVG (https://github.com/iconjar/IJSVG)--><g stroke-width="1" stroke="#FFF" fill="none" stroke-linejoin="round"><path d="M20.7175,3.28249c3.70998,3.70998 3.70998,9.72505 0,13.435c-3.70998,3.70998 -9.72505,3.70998 -13.435,3.55271e-15c-3.70998,-3.70998 -3.70998,-9.72505 -2.66454e-15,-13.435c3.70998,-3.70998 9.72505,-3.70998 13.435,-2.66454e-15"></path><path d="M15.5804,6.18462c0.872822,0.872822 0.872822,2.28795 0,3.16077c-0.872822,0.872822 -2.28795,0.872822 -3.16077,0c-0.872822,-0.872822 -0.872822,-2.28795 0,-3.16077c0.872822,-0.872822 2.28795,-0.872822 3.16077,0"></path><path d="M14,3.294c-3.703,0 -6.706,3.003 -6.706,6.706c0,0.299 0.147,0.578 0.394,0.748c0.245,0.169 0.559,0.206 0.838,0.1c0.485,-0.186 1.011,-0.289 1.562,-0.289c2.469,0 4.471,2.002 4.471,4.471c0,0.436 0.214,0.845 0.572,1.093c0.358,0.248 0.815,0.305 1.224,0.151c2.542,-0.951 4.352,-3.398 4.352,-6.273c-0.001,-3.704 -3.004,-6.707 -6.707,-6.707Z"></path><path stroke-linecap="round" d="M7.28,16.72l-6.66,6.66"></path></g><path fill="none" d="M0,0h24v24h-24Z"></path></svg>