<?xml version="1.0" encoding="UTF-8"?><svg version="1.1" viewBox="0 0 24 24" xmlns="http://www.w3.org/2000/svg" xmlns:xlink="http://www.w3.org/1999/xlink"><!--Generated by IJSVG (https://github.com/iconjar/IJSVG)--><g stroke-linecap="round" stroke-width="1" stroke="#FFF" fill="none" stroke-linejoin="round"><path d="M2.5,21.5v2"></path><path d="M21.5,21.5v2"></path><path d="M0.5,15.5v1v3c0,1.104 0.895,2 2,2h19c1.104,0 2,-0.896 2,-2v-3v-1"></path><path d="M20.5,15.5v1c0,0.551 -0.448,1 -1,1h-15c-0.553,0 -1,-0.449 -1,-1v-1"></path><path d="M21.5,14.062v-0.562c0,-2.21 -1.791,-4 -4,-4h-11c-2.21,0 -4,1.79 -4,4v0.577"></path><path d="M0.5,15.5c0,-0.83 0.671,-1.5 1.5,-1.5c0.828,0 1.5,0.67 1.5,1.5"></path><path d="M23.5,15.5c0,-0.83 -0.672,-1.5 -1.5,-1.5c-0.829,0 -1.5,0.67 -1.5,1.5"></path><path d="M11.5,9.5v8"></path></g><path fill="none" d="M0,0h24v24h-24Z"></path></svg>