<?xml version="1.0" encoding="UTF-8"?><svg version="1.1" viewBox="0 0 24 24" xmlns="http://www.w3.org/2000/svg" xmlns:xlink="http://www.w3.org/1999/xlink"><!--Generated by IJSVG (https://github.com/iconjar/IJSVG)--><g stroke-linecap="round" stroke-width="1" stroke="#FFF" fill="none" stroke-linejoin="round"><path d="M5.91421,17.0858c0.781049,0.781049 0.781049,2.04738 0,2.82843c-0.781049,0.781049 -2.04738,0.781049 -2.82843,0c-0.781049,-0.781049 -0.781049,-2.04738 -4.44089e-16,-2.82843c0.781049,-0.781049 2.04738,-0.781049 2.82843,0"></path><path d="M20.5,18.5h3"></path><path d="M19.9142,17.0858c0.781049,0.781049 0.781049,2.04738 0,2.82843c-0.781049,0.781049 -2.04738,0.781049 -2.82843,0c-0.781049,-0.781049 -0.781049,-2.04738 0,-2.82843c0.781049,-0.781049 2.04738,-0.781049 2.82843,0"></path><path d="M6.5,18.5h10"></path><path d="M22.5,18.5v-3.5c0,-0.829 -0.672,-1.5 -1.5,-1.5h-1.5l-2,-4h-9.5l-2,4h-4c-0.829,0 -1.5,0.671 -1.5,1.5v3.5h2"></path><path d="M8.5,13.5l1,-2h1"></path></g><path fill="none" d="M0,0h24v24h-24Z"></path></svg>