<?xml version="1.0" encoding="UTF-8"?><svg version="1.1" viewBox="0 0 24 24" xmlns="http://www.w3.org/2000/svg" xmlns:xlink="http://www.w3.org/1999/xlink"><!--Generated by IJSVG (https://github.com/iconjar/IJSVG)--><g stroke-width="1" stroke="#FFF" fill="none" stroke-linejoin="round"><path d="M16.091,6.09l2.909,-1.09l-2.909,-1.092l-1.091,-2.908l-1.091,2.908l-2.909,1.092l2.909,1.09l1.091,2.91Z"></path><path d="M20.545,11.545l1.455,-0.545l-1.455,-0.546l-0.545,-1.454l-0.545,1.454l-1.455,0.546l1.455,0.545l0.545,1.455Z"></path><path stroke-linecap="round" d="M17,15.5c-5.72,0 -9.798,-5.537 -8.126,-10.994c-4.636,0.068 -8.374,3.842 -8.374,8.494c0,4.693 3.806,8.5 8.5,8.5c3.826,0 7.061,-2.529 8.126,-6.007c-0.042,0.001 -0.083,0.007 -0.126,0.007Z"></path></g><path fill="none" d="M0,0h24v24h-24Z"></path></svg>