<?xml version="1.0" encoding="UTF-8"?><svg version="1.1" viewBox="0 0 24 24" xmlns="http://www.w3.org/2000/svg" xmlns:xlink="http://www.w3.org/1999/xlink"><!--Generated by IJSVG (https://github.com/iconjar/IJSVG)--><g stroke-width="1" stroke="#FFF" fill="none" stroke-linejoin="round"><path d="M7.204,9.533l-6.571,12.309c-0.233,0.438 -0.153,0.977 0.197,1.328c0.352,0.352 0.891,0.432 1.329,0.197l12.347,-6.584"></path><path d="M15.1594,10.8927c2.09946,0.968891 2.09946,2.53977 0,3.50866c-2.09946,0.968891 -5.50335,0.968891 -7.60281,0c-2.09946,-0.968891 -2.09946,-2.53977 0,-3.50866c2.09946,-0.968891 5.50335,-0.968891 7.60281,0" transform="matrix(0.7071,0.7072,-0.7072,0.7071,12.2709,-4.3268)"></path><path stroke-linecap="round" d="M16.447,12.217c1.938,-1.936 5.08,-1.936 7.018,0"></path><path stroke-linecap="round" d="M11.769,7.539c1.938,-1.938 1.938,-5.078 0,-7.018"></path><path stroke-linecap="round" d="M18.08,8.25l3.5,-1.17"></path><path stroke-linecap="round" d="M15.74,5.91l1.17,-3.51"></path><path stroke-linecap="round" d="M15.9203,7.89674c0.195653,0.195653 0.195653,0.512868 0,0.708521c-0.195653,0.195653 -0.512868,0.195653 -0.708521,0c-0.195653,-0.195653 -0.195653,-0.512868 0,-0.708521c0.195653,-0.195653 0.512868,-0.195653 0.708521,0"></path><path stroke-linecap="round" d="M8.48755,4.97245c0.195262,0.195262 0.195262,0.511845 0,0.707107c-0.195262,0.195262 -0.511845,0.195262 -0.707107,0c-0.195262,-0.195262 -0.195262,-0.511845 0,-0.707107c0.195262,-0.195262 0.511845,-0.195262 0.707107,0"></path><path stroke-linecap="round" d="M20.2616,3.74245c0.195262,0.195262 0.195262,0.511845 0,0.707107c-0.195262,0.195262 -0.511845,0.195262 -0.707107,0c-0.195262,-0.195262 -0.195262,-0.511845 0,-0.707107c0.195262,-0.195262 0.511845,-0.195262 0.707107,0"></path><path stroke-linecap="round" d="M19.5986,13.7464c0.195262,0.195262 0.195262,0.511845 0,0.707107c-0.195262,0.195262 -0.511845,0.195262 -0.707107,0c-0.195262,-0.195262 -0.195262,-0.511845 0,-0.707107c0.195262,-0.195262 0.511845,-0.195262 0.707107,0"></path></g><path fill="none" d="M0,0h24v24h-24Z"></path></svg>