<?xml version="1.0" encoding="UTF-8"?><svg version="1.1" viewBox="0 0 24 24" xmlns="http://www.w3.org/2000/svg" xmlns:xlink="http://www.w3.org/1999/xlink"><!--Generated by IJSVG (https://github.com/iconjar/IJSVG)--><g stroke-width="1" stroke="#FFF" fill="none" stroke-linejoin="round"><path d="M19.5,23.5h-15l-1,-16h17Z"></path><path d="M3.83,12.5h16.34"></path><path d="M4.08,16.5h15.86"></path><path d="M7.5,7.5v5"></path><path d="M10.5,7.5v5"></path><path d="M13.5,7.5v5"></path><path d="M16.5,7.5v5"></path><path d="M7.5,16.5v7"></path><path d="M10.5,16.5v7"></path><path d="M13.5,16.5v7"></path><path d="M16.5,16.5v7"></path><path stroke-linecap="round" d="M20.5,5.5c0,-3.494 -3.397,-3.702 -4.595,-1.859c-0.911,-4.165 -6.896,-4.184 -7.811,0c-1.202,-1.849 -4.594,-1.625 -4.594,1.859"></path></g><path fill="none" d="M0,0h24v24h-24Z"></path></svg>