<?xml version="1.0" encoding="UTF-8"?><svg version="1.1" viewBox="0 0 24 24" xmlns="http://www.w3.org/2000/svg" xmlns:xlink="http://www.w3.org/1999/xlink"><!--Generated by IJSVG (https://github.com/iconjar/IJSVG)--><g stroke-linecap="round" stroke-width="1" stroke="#FFF" fill="none" stroke-linejoin="round"><path d="M18.5,11.5c0,-3.866 -3.134,-7 -7,-7v0c-3.866,0 -7,3.134 -7,7v0c0,3.866 3.134,7 7,7v0c3.866,0 7,-3.134 7,-7v0Z"></path><path d="M11.5,20.5v2"></path><path d="M20.5,11.5h2"></path><path d="M11.5,2.5v-2"></path><path d="M2.5,11.5h-2"></path><path d="M5.14,17.86l-1.42,1.42"></path><path d="M17.86,17.86l1.42,1.42"></path><path d="M17.86,5.14l1.42,-1.42"></path><path d="M5.14,5.14l-1.42,-1.42"></path></g><path fill="none" d="M0,0h24v24h-24Z"></path></svg>