<svg class="svg-icon-lib" aria-hidden="true" style="position: absolute;" data-enabled xmlns="http://www.w3.org/2000/svg">
<symbol id="box" viewBox="0 0 100 100"> <path d="M8.3 16.4l-8 16.1c-.7 1.4 0 3.2 1.6 3.6l30.9 8.8c1.1.3 2.3-.2 2.9-1.1L50 20l-39.1-5c-1.1-.1-2.1.4-2.6 1.4zm91.4 16.1l-8-16.1c-.5-1-1.5-1.5-2.6-1.4L50 20l14.3 23.8c.6 1 1.8 1.5 2.9 1.1l30.9-8.8c1.6-.5 2.3-2.2 1.6-3.6zM66.5 50c-2.6 0-5.1-1.4-6.5-3.7L50 29.7 40 46.3c-1.4 2.3-3.8 3.7-6.5 3.7-.7 0-1.4-.1-2.1-.3L10 43.6v27.8c0 2.3 1.6 4.3 3.8 4.8l33.8 8.5c1.6.4 3.3.4 4.8 0l33.8-8.5c2.2-.6 3.8-2.6 3.8-4.8V43.6l-21.4 6.1c-.7.2-1.4.3-2.1.3z"/> </symbol>
<symbol id="chevron-right" viewBox="0 0 100 100"> <path d="M78.7 53.9L34.2 98.4c-2.1 2.1-5.6 2.1-7.8 0l-5.2-5.2c-2.1-2.1-2.1-5.6 0-7.8L56.5 50 21.3 14.6c-2.1-2.1-2.1-5.6 0-7.8l5.2-5.2c2.1-2.1 5.6-2.1 7.8 0l44.5 44.5c2.1 2.2 2.1 5.6-.1 7.8z"/> </symbol>
<symbol id="euro" viewBox="0 0 100 100"> <path d="M83.7 85.2c-.3-1.5-1.7-2.4-3.2-2.1-2.4.5-6.1 1.2-10.1 1.2-12.7 0-22.8-7.8-27.1-19.1h25.4c1.3 0 2.3-.9 2.6-2.1l1.4-6.3c.4-1.7-.9-3.3-2.6-3.3H40c-.3-3.2-.3-6.3 0-9.4h32.7c1.3 0 2.3-.9 2.6-2.1l1.5-6.6c.4-1.7-.9-3.3-2.6-3.3H43.4c4.6-10 14-16.7 26.3-16.7 3.2 0 6.4.5 8.4.9 1.4.3 2.8-.6 3.1-1.9l2.7-9.9c.4-1.5-.6-3-2.1-3.3C79.1.6 74.7 0 70 0 48.3 0 30.8 13.4 24.4 32.1H17c-1.5 0-2.7 1.2-2.7 2.7v6.6c0 1.5 1.2 2.7 2.7 2.7h4.8c-.2 3-.3 6.5 0 9.4H17c-1.5 0-2.7 1.2-2.7 2.7v6.3c0 1.5 1.2 2.7 2.7 2.7h6.7C29.3 85.4 46.7 100 70 100c5.9 0 10.8-1 13.6-1.7 1.4-.4 2.2-1.7 2-3.1l-1.9-10z"/> </symbol>
<symbol id="eye" viewBox="0 0 100 100"> <path d="M50 30.6c-1.8 0-3.7.3-5.4.9.8 1.4 1.2 3 1.3 4.7 0 5.4-4.4 9.7-9.7 9.7-1.6 0-3.3-.4-4.7-1.3-3 10.3 3 21 13.3 24s21-3 24-13.3-3-21-13.3-24c-1.8-.5-3.7-.8-5.5-.7zm49.4 16.9C90 29.1 71.3 16.7 50 16.7S10 29.1.6 47.5c-.8 1.6-.8 3.5 0 5.1C10 70.9 28.7 83.3 50 83.3s40-12.4 49.4-30.8c.8-1.6.8-3.4 0-5zM50 75c-17.1 0-32.8-9.5-41.3-25C17.2 34.5 32.9 25 50 25s32.8 9.5 41.3 25C82.8 65.5 67.1 75 50 75z"/> </symbol>
<symbol id="graph" viewBox="0 0 100 100"> <path d="M60.1 75.3h6.7c1.9 0 3.4-1.5 3.4-3.4V33.7c0-1.9-1.5-3.4-3.4-3.4h-6.7c-1.9 0-3.4 1.5-3.4 3.4v38.2c0 1.9 1.6 3.4 3.4 3.4zM87.1 75.3h6.7c1.9 0 3.4-1.5 3.4-3.4V6.7c0-1.9-1.5-3.4-3.4-3.4h-6.7c-1.9 0-3.4 1.5-3.4 3.4v65.2c0 1.9 1.5 3.4 3.4 3.4zM96.6 86H3.4C1.5 86 0 87.5 0 89.3v3.9c0 1.9 1.5 3.4 3.4 3.4h93.3c1.9 0 3.4-1.5 3.4-3.4v-3.9c-.1-1.8-1.6-3.3-3.5-3.3zM33.1 75.3h6.7c1.9 0 3.4-1.5 3.4-3.4V15.7c0-1.9-1.5-3.4-3.4-3.4h-6.7c-1.9 0-3.4 1.5-3.4 3.4v56.2c.1 1.9 1.6 3.4 3.4 3.4zM6.2 75.3h6.7c1.9 0 3.4-1.5 3.4-3.4V51.7c0-1.9-1.5-3.4-3.4-3.4H6.2c-1.9 0-3.4 1.5-3.4 3.4v20.2c0 1.9 1.5 3.4 3.4 3.4z"/> </symbol>
<symbol id="hamburger" viewBox="0 0 100 100"> <path d="M90.6 50H9.4C4.2 50 0 54.2 0 59.4s4.2 9.4 9.4 9.4h81.2c5.2 0 9.4-4.2 9.4-9.4S95.8 50 90.6 50zm3.2 25H6.2c-1.7 0-3.1 1.4-3.1 3.1v3.1c0 6.9 5.6 12.5 12.5 12.5h68.8c6.9 0 12.5-5.6 12.5-12.5v-3.1c0-1.7-1.4-3.1-3.1-3.1zM11.5 43.8h77.1c6.8 0 10.7-8.6 6.8-14.8C87.5 16.2 70.2 6.3 50 6.2c-20.2 0-37.5 10-45.3 22.7-3.9 6.3 0 14.9 6.8 14.9zM75 21.9c1.7 0 3.1 1.4 3.1 3.1 0 1.7-1.4 3.1-3.1 3.1s-3.1-1.4-3.1-3.1c0-1.7 1.4-3.1 3.1-3.1zm-25-6.3c1.7 0 3.1 1.4 3.1 3.1s-1.4 3.1-3.1 3.1c-1.7 0-3.1-1.4-3.1-3.1s1.4-3.1 3.1-3.1zm-25 6.3c1.7 0 3.1 1.4 3.1 3.1 0 1.7-1.4 3.1-3.1 3.1-1.7 0-3.1-1.4-3.1-3.1 0-1.7 1.4-3.1 3.1-3.1z"/> </symbol>
<symbol id="heart" viewBox="0 0 100 100"> <path d="M81.6 20c-9-7.6-23-6.5-31.6 2.3-8.6-8.8-22.6-10-31.6-2.3-11.7 9.9-10 26-1.7 34.6l27.4 27.9c1.6 1.6 3.7 2.5 5.9 2.5s4.3-.9 5.9-2.5l27.4-27.9c8.3-8.5 10.1-24.7-1.7-34.6zm-3.7 29.3l-27.4 28c-.4.4-.7.4-1.1 0l-27.3-28c-5.7-5.8-6.9-16.8 1.1-23.5 6.1-5.1 15.5-4.3 21.3 1.6L50 33l5.5-5.6c5.9-6 15.3-6.7 21.3-1.7 8 6.8 6.8 17.9 1.1 23.6z"/> </symbol>
<symbol id="incentro" viewBox="0 0 440 75"> <path d="M15.5 59.4V9H0v65.8c8.5 0 15.5-6.9 15.5-15.4zm113.5 0h-8.1c-9.5.1-17.3-7.4-17.4-16.9s7.4-17.3 16.9-17.4h7.9c8.9 0 16.1-7.2 16.1-16.1h-23.2c-16.4 0-30.6 11.8-32.9 28C85.6 55 98 71.8 116 74.4c1.6.2 3.2.4 4.8.4h23.6c0-8.5-6.9-15.4-15.4-15.4zM80.6 41.8C80.6 23.7 65.9 9 47.8 9H25.5v65.8H41V25.1h7.1c9.4 0 17.1 7.7 17.1 17.1v32.6h15.4v-33zm265.7 17.3V41.9c0-9.5 7.7-17.1 17.1-17.1h8.1V9.1h-8.1c-18.1 0-32.8 14.7-32.8 32.8v32.9c8.6 0 15.7-7 15.7-15.7zm-76.1-17.3c0-18.1-14.7-32.8-32.8-32.8h-23.6v65.8h15.5V25.1h8.4c9.4 0 17.1 7.6 17.1 17.1v32.6h15.5v-33zm-82.4 17.6h-8.1c-3.1 0-6.2-.8-8.8-2.4 17.5-.4 31.7-14.3 32.4-31.8V9H180c-16.6 0-31 12.2-33 28.7-2.3 18 10.4 34.6 28.5 36.9 1.4.2 2.8.3 4.2.3h23.6c-.1-8.6-7-15.5-15.5-15.5zm-25-20c1.4-8.3 8.5-14.3 16.9-14.3h7.7c-.7 9.5-8.9 16.6-18.4 15.9-2.2-.1-4.3-.7-6.2-1.6zm157.5 19.7h-10c-9.4 0-17.1-7.6-17.1-17.1v-2.1h5.9c8.4 0 15.1-6.8 15.1-15.1h-21v-8.5C292.7 7.9 286 1 277.4.3V42c0 18.1 14.7 32.8 32.8 32.8h10l.1-15.7z" fill="#fe5000"/> <circle data-animation="erase-circle" cx="406.4" cy="41.9" r="24.8" fill="none" stroke="#fe5000" stroke-width="16" stroke-linecap="round" stroke-linejoin="round" stroke-miterlimit="10"/> </symbol>
<symbol id="mobile-alt" viewBox="0 0 100 100"> <path d="M71.9 0H28.1c-5.2 0-9.4 4.2-9.4 9.4v81.2c0 5.2 4.2 9.4 9.4 9.4h43.8c5.2 0 9.4-4.2 9.4-9.4V9.4C81.2 4.2 77.1 0 71.9 0zM50 93.8c-3.5 0-6.2-2.8-6.2-6.2s2.8-6.2 6.2-6.2 6.2 2.8 6.2 6.2-2.7 6.2-6.2 6.2zm21.9-21.1c0 1.3-1.1 2.3-2.3 2.3H30.5c-1.3 0-2.3-1.1-2.3-2.3v-61c0-1.3 1.1-2.3 2.3-2.3h39.1c1.3 0 2.3 1.1 2.3 2.3v61z"/> </symbol>
<symbol id="pencil" viewBox="0 0 100 100"> <path d="M97.2 27.7l-9 9c-.9.9-2.4.9-3.3 0L63.2 15.1c-.9-.9-.9-2.4 0-3.3l9-9c3.7-3.7 9.6-3.7 13.3 0l11.7 11.7c3.7 3.6 3.7 9.6 0 13.2zm-41.7-8.2L4.2 70.8.1 94.5c-.6 3.2 2.2 6 5.4 5.4l23.7-4.2 51.3-51.3c.9-.9.9-2.4 0-3.3L58.8 19.5c-.9-.9-2.4-.9-3.3 0zM24.2 66.4c-1.1-1.1-1.1-2.8 0-3.9l30.1-30.1c1.1-1.1 2.8-1.1 3.9 0s1.1 2.8 0 3.9L28.1 66.4c-1.1 1-2.8 1-3.9 0zm-7 16.4h9.4v7.1L14 92.1 7.9 86l2.2-12.6h7.1v9.4z"/> </symbol>
<symbol id="renew" viewBox="0 0 100 100"> <path d="M83.3 15h-6.6c-1 0-1.7.8-1.7 1.7l.6 11.5c-6.3-7.4-15.7-12.1-26.2-12.1-19 0-34.4 15.5-34.4 34.4C15 69.6 30.4 85 49.4 85c8.9 0 17-3.4 23.1-8.9.7-.6.7-1.7.1-2.4L67.8 69c-.6-.6-1.6-.7-2.3-.1-4.3 3.8-10 6.1-16.1 6.1C35.9 75 25 64.1 25 50.6c0-13.5 10.9-24.4 24.4-24.4 8.5 0 15.9 4.3 20.3 10.8l-14.1-.7c-1 0-1.7.7-1.7 1.7v6.6c0 .9.7 1.7 1.7 1.7h27.8c.9 0 1.7-.7 1.7-1.7V16.7c-.1-.9-.8-1.7-1.8-1.7z"/> </symbol>
<symbol id="sim" viewBox="0 0 100 100"> <path d="M61 41.6H39c-2.7 0-4.8 2.1-4.8 4.8v36.9c0 2.7 2.1 4.8 4.8 4.8h22c2.7 0 4.8-2.1 4.8-4.8v-37c-.1-2.6-2.2-4.7-4.8-4.7z"/> <path d="M59.9 0H30.8c-4.6 0-8.3 4.2-8.3 9.4v81.2c0 5.2 3.7 9.4 8.3 9.4h38.5c4.6 0 8.2-4.2 8.2-9.4V20L59.9 0zm7.6 84.1c0 3.3-2.7 6-6 6h-23c-3.3 0-6-2.7-6-6V45.4c0-3.3 2.7-6 6-6h23c3.3 0 6 2.7 6 6v38.7z"/> </symbol>
<symbol id="user-edit" viewBox="0 0 100 100"> <path d="M35 50c11 0 20-9 20-20s-9-20-20-20-20 9-20 20 9 20 20 20zm14 5h-2.6c-3.5 1.6-7.3 2.5-11.4 2.5s-7.9-.9-11.4-2.5H21C9.4 55 0 64.4 0 76v6.5C0 86.6 3.4 90 7.5 90h43c-.4-1.1-.5-2.2-.4-3.3l1.1-9.5.2-1.7 1.2-1.2 12.1-12.1C60.8 57.8 55.2 55 49 55zm7.1 22.7L55 87.2c-.2 1.6 1.2 2.9 2.8 2.8l9.5-1.1 21.5-21.5-11.2-11.2-21.5 21.5zM98.9 52L93 46.1c-1.5-1.5-3.8-1.5-5.3 0L81.8 52l-.6.6 11.2 11.2 6.5-6.5c1.5-1.5 1.5-3.8 0-5.3z"/> </symbol>
<symbol id="user" viewBox="0 0 100 100"> <path d="M67.5 59.4c-5.6 0-8.3 3.1-17.5 3.1s-11.9-3.1-17.5-3.1C18 59.4 6.2 71.1 6.2 85.6v5c0 5.2 4.2 9.4 9.4 9.4h68.8c5.2 0 9.4-4.2 9.4-9.4v-5c0-14.5-11.8-26.2-26.3-26.2zm16.9 31.2H15.6v-5c0-9.3 7.6-16.9 16.9-16.9 2.9 0 7.5 3.1 17.5 3.1 10.1 0 14.6-3.1 17.5-3.1 9.3 0 16.9 7.6 16.9 16.9v5zM50 56.2c15.5 0 28.1-12.6 28.1-28.1S65.5 0 50 0 21.9 12.6 21.9 28.1 34.5 56.2 50 56.2zm0-46.8c10.3 0 18.8 8.4 18.8 18.8S60.3 46.9 50 46.9s-18.8-8.4-18.8-18.8S39.7 9.4 50 9.4z"/> </symbol>
</svg>