<?xml version="1.0" encoding="UTF-8"?><svg version="1.1" viewBox="0 0 26 34" xmlns="http://www.w3.org/2000/svg" xmlns:xlink="http://www.w3.org/1999/xlink"><!--Generated by IJSVG (https://github.com/iconjar/IJSVG)--><g transform="matrix(1,0,0,1,-1077,-557)"><g transform="matrix(1,0,0,1,1077,557)"><path fill="none" fill-rule="evenodd" stroke="#152256" stroke-linecap="round" stroke-linejoin="round" stroke-width="1" d="M2.70833,33.2917c-1.10456,0 -2,-0.89544 -2,-2v-28.5833c0,-1.10456 0.89544,-2 2,-2h20.0833c1.10456,0 2,0.89544 2,2v28.5833c0,1.10456 -0.89544,2 -2,2Z"></path><path fill="none" fill-rule="evenodd" stroke="#152256" stroke-linecap="round" stroke-linejoin="round" stroke-width="1" d="M24.7888,27.625h-24.0777"></path><path fill="none" fill-rule="evenodd" stroke="#152256" stroke-linecap="round" stroke-linejoin="round" stroke-width="1" d="M24.7888,6.375h-24.0777"></path><path fill="none" fill-rule="evenodd" stroke="#152256" stroke-linecap="round" stroke-linejoin="round" stroke-width="1" d="M12.75,29.75c0.195601,0 0.354167,0.158566 0.354167,0.354167v0c0,0.195601 -0.158566,0.354167 -0.354167,0.354167v0c-0.195601,0 -0.354167,-0.158566 -0.354167,-0.354167v0c0,-0.195601 0.158566,-0.354167 0.354167,-0.354167"></path><path fill="none" fill-rule="evenodd" stroke="#152256" stroke-linecap="round" stroke-linejoin="round" stroke-width="1" d="M12.75,29.75v0"></path><path fill="none" fill-rule="evenodd" stroke="#152256" stroke-linecap="round" stroke-linejoin="round" stroke-width="1" d="M12.75,3.54167c0.195601,0 0.354167,0.158566 0.354167,0.354167v0c0,0.195601 -0.158566,0.354167 -0.354167,0.354167v0c-0.195601,0 -0.354167,-0.158566 -0.354167,-0.354167v0c0,-0.195601 0.158566,-0.354167 0.354167,-0.354167"></path><path fill="none" fill-rule="evenodd" stroke="#152256" stroke-linecap="round" stroke-linejoin="round" stroke-width="1" d="M12.75,3.54167v0"></path></g></g></svg>