<svg xmlns="http://www.w3.org/2000/svg" viewBox="0 0 68 54"><defs><style>.cls-1{fill:none}.cls-2{fill:#1d1d1f}</style></defs><g id="ac_icon_large"><path class="cls-1" d="M30.13 27l-.39-.15c-.44 0-2.11 0-3.75.23-3.1.37-6 1.9-7.34 3.9-1.77 2.61-1.73 5.8.11 7.74a4.75 4.75 0 0 0 3.53 1.55 5.1 5.1 0 0 0 2.71-.74c1.79-1.12 2.6-3.31 3.13-4.75l.37-1a15.9 15.9 0 0 1 2.2-3.61 4 4 0 0 1-.54-3.2zM34 24a4 4 0 0 1 2.79 1.15l.35-.29s.9-1.62 1.64-3.34c1.23-2.87 1.34-6.14.28-8.32a6.42 6.42 0 0 0-5.59-3.9 5 5 0 0 0-1.17.14 4.9 4.9 0 0 0-3.78 5c.08 2.11 1.51 3.83 2.56 5.08.26.31.48.58.64.8a15.94 15.94 0 0 1 2 3.7z"/><circle class="cls-1" cx="33.98" cy="28" r="1.98"/><path class="cls-1" d="M34 5a23 23 0 0 0 0 46 23 23 0 0 0 0-46zm18.77 31.45c-1 3.45-4.64 5.69-8.72 5.38-3-.22-6.3-2.27-8.5-5.23a39 39 0 0 1-2.22-3.37 1.74 1.74 0 0 1-.21-.58l-.07-.4a4.35 4.35 0 0 1-1.13-.42 14.26 14.26 0 0 0-1.64 2.8c-.1.21-.2.5-.32.83-.63 1.7-1.58 4.27-3.95 5.76a7.13 7.13 0 0 1-3.74 1.06 6.71 6.71 0 0 1-5-2.18c-2.49-2.64-2.62-6.85-.31-10.24 1.67-2.46 5.11-4.33 8.76-4.77a39.28 39.28 0 0 1 4-.24 1.69 1.69 0 0 1 .63.11l.33.12a4.27 4.27 0 0 1 .94-.79 14.3 14.3 0 0 0-1.6-2.8c-.14-.19-.33-.42-.56-.69-1.16-1.39-2.92-3.5-3-6.29a6.88 6.88 0 0 1 5.31-7 7 7 0 0 1 1.64-.19 8.39 8.39 0 0 1 7.39 5c1.3 2.68 1.21 6.59-.24 10a40 40 0 0 1-1.8 3.61 1.74 1.74 0 0 1-.4.48l-.29.24a4.3 4.3 0 0 1 .21 1.23 14.39 14.39 0 0 0 3.24 0c.23 0 .52-.07.86-.13a18.17 18.17 0 0 1 3.12-.33 8 8 0 0 1 3.85.88 6.88 6.88 0 0 1 3.42 8.15z"/><path class="cls-1" d="M48.45 30.1a6.06 6.06 0 0 0-2.91-.64 16.47 16.47 0 0 0-2.77.3c-.41.07-.74.12-1 .15a16 16 0 0 1-4.23-.11 4 4 0 0 1-2.51 2l.08.47s.95 1.6 2.06 3.09c1.86 2.51 4.63 4.24 7 4.42 3.15.24 5.89-1.41 6.66-4a4.9 4.9 0 0 0-2.38-5.68z"/><path class="cls-2" d="M57.19 18.7A25 25 0 1 0 57 37.82a24.88 24.88 0 0 0 .19-19.12zM55.14 37a23 23 0 1 1 .2-17.6 22.84 22.84 0 0 1-.2 17.6z"/><path class="cls-2" d="M49.39 28.33a8 8 0 0 0-3.85-.88 18.17 18.17 0 0 0-3.12.33c-.34.06-.63.11-.86.13a14.39 14.39 0 0 1-3.24 0 4.3 4.3 0 0 0-.21-1.23l.29-.24a1.74 1.74 0 0 0 .4-.48 40 40 0 0 0 1.8-3.61c1.45-3.38 1.54-7.3.24-10a8.39 8.39 0 0 0-7.39-5 7 7 0 0 0-1.64.19 6.88 6.88 0 0 0-5.31 7c.11 2.79 1.86 4.9 3 6.29.22.27.42.5.56.69a14.3 14.3 0 0 1 1.6 2.8 4.27 4.27 0 0 0-.94.79L30.4 25a1.69 1.69 0 0 0-.63-.11 39.28 39.28 0 0 0-4 .24c-3.65.43-7.09 2.3-8.76 4.77-2.31 3.4-2.18 7.61.31 10.24a6.71 6.71 0 0 0 5 2.18 7.13 7.13 0 0 0 3.68-1.1c2.37-1.48 3.32-4.05 3.95-5.76.12-.33.23-.61.32-.83a14.26 14.26 0 0 1 1.64-2.8 4.35 4.35 0 0 0 1.13.42l.07.4a1.74 1.74 0 0 0 .21.58 39 39 0 0 0 2.22 3.37c2.2 3 5.53 5 8.5 5.23 4.08.31 7.69-1.92 8.72-5.38a6.88 6.88 0 0 0-3.37-8.12zm-20.92 5.49c-.11.25-.23.57-.37 1-.53 1.45-1.34 3.63-3.13 4.75a5.1 5.1 0 0 1-2.68.76 4.75 4.75 0 0 1-3.53-1.55c-1.84-1.95-1.88-5.13-.11-7.74 1.36-2 4.24-3.54 7.34-3.9 1.64-.19 3.3-.22 3.75-.23l.39.15a4 4 0 0 0 .54 3.2 15.9 15.9 0 0 0-2.2 3.56zm3.22-13.49c-.16-.22-.38-.49-.64-.8-1-1.26-2.48-3-2.56-5.08a4.9 4.9 0 0 1 3.78-5 5 5 0 0 1 1.17-.14A6.42 6.42 0 0 1 39 13.23c1.06 2.18.95 5.44-.28 8.32-.74 1.72-1.66 3.34-1.64 3.34l-.35.29A4 4 0 0 0 34 24h-.26a15.94 15.94 0 0 0-2.05-3.67zM32 28a2 2 0 1 1 2 2 2 2 0 0 1-2-2zm18.85 7.87c-.77 2.55-3.5 4.19-6.66 4-2.41-.18-5.18-1.92-7-4.42-1.11-1.49-2-3.09-2.06-3.09l-.13-.52a4 4 0 0 0 2.51-2 16 16 0 0 0 4.23.11c.27 0 .6-.08 1-.15a16.47 16.47 0 0 1 2.77-.3 6.06 6.06 0 0 1 2.91.64 4.9 4.9 0 0 1 2.44 5.74z"/></g></svg>