<svg xmlns="http://www.w3.org/2000/svg" viewBox="0 0 68 57"><defs><style>.cls-1{fill:#1d1d1f}.cls-2{fill:none}</style></defs><g id="bell_icon_large"><path class="cls-1" d="M29.62 12.84l-.99-1.73 1.01 1.72-.02.01z"/><circle class="cls-2" cx="34.01" cy="8.5" r=".78"/><path class="cls-2" d="M52.13 42.64h-1.99c-1.65-.42-2.14-3.31-2.27-5.64V26.47c0-7.51-6.49-12-9.28-13.63h-.09a1 1 0 0 1-.24-1.39 4.85 4.85 0 0 0 .9-2.81 4.94 4.94 0 0 0-5-4.89 5.06 5.06 0 0 0-5.08 4.9A5 5 0 0 0 30 11.4a.94.94 0 0 1 0 .14 1 1 0 0 1 .06.19 1 1 0 0 1 0 .19.66.66 0 0 1-.08.37 1 1 0 0 1-.09.17 1 1 0 0 1-.14.14.94.94 0 0 1-.1.11h-.05c-1.48.83-8.87 5.39-8.87 13.63v10.6c-.32 2.32-1 5.16-2.64 5.53H16.1v1.39h36v-.76c0-.24.03-.25.03-.46zM34 11.28a2.78 2.78 0 1 1 2.79-2.78A2.78 2.78 0 0 1 34 11.28z"/><path class="cls-1" d="M34 5.72a2.78 2.78 0 1 0 2.79 2.78A2.78 2.78 0 0 0 34 5.72zm0 3.55a.78.78 0 1 1 .78-.78.78.78 0 0 1-.78.79zm7 39.17a1 1 0 0 0-1 1c0 4.12-4.2 4.56-6 4.56s-6-.44-6-4.56a1 1 0 0 0-2 0c0 4 3 6.56 8 6.56s8-2.51 8-6.56a1 1 0 0 0-1-1z"/><path class="cls-1" d="M54.14 43.22v-1a1.58 1.58 0 0 0-.5-1.21 1.72 1.72 0 0 0-1.2-.43h-1.77a9.92 9.92 0 0 1-.77-3.7V26.47c0-7.84-6-12.72-9.42-14.85a6.82 6.82 0 0 0 .71-3 7 7 0 0 0-7-6.89 7.08 7.08 0 0 0-7.08 6.9 7 7 0 0 0 .69 3c-2.66 1.7-9 6.63-9 14.85v10.38a10.22 10.22 0 0 1-1.13 3.77h-1.78a1.73 1.73 0 0 0-1.27.42 1.58 1.58 0 0 0-.5 1.21v2A1.66 1.66 0 0 0 16 46h36.35a1.66 1.66 0 0 0 1.81-1.8c-.01-.33-.01-.65-.02-.98zm-38 .81v-1.39h1.99c1.59-.36 2.31-3.2 2.64-5.53V26.47c0-8.24 7.39-12.8 8.87-13.63h.05a.94.94 0 0 0 .1-.11 1 1 0 0 0 .14-.14 1 1 0 0 0 .09-.17.66.66 0 0 0 .08-.37 1 1 0 0 0 0-.19 1 1 0 0 0-.06-.19.94.94 0 0 0 0-.14 5 5 0 0 1-.87-2.81 5.06 5.06 0 0 1 5.08-4.9 4.94 4.94 0 0 1 5 4.89 4.85 4.85 0 0 1-.9 2.81 1 1 0 0 0 .24 1.39h.09c2.79 1.6 9.28 6.12 9.28 13.63V37c.12 2.35.62 5.24 2.26 5.61h1.99V44z"/></g></svg>