<svg xmlns="http://www.w3.org/2000/svg" viewBox="0 0 68 54"><defs><style>.cls-1{fill:none}.cls-2{fill:#1d1d1f}</style></defs><g id="bridges_icon_large"><circle class="cls-1" cx="26" cy="41" r="2.5"/><path class="cls-1" d="M47 17H21a4 4 0 0 0-4 4v26a4 4 0 0 0 4 4h26a4 4 0 0 0 4-4V21a4 4 0 0 0-4-4zM26 45.5a4.5 4.5 0 1 1 4.5-4.5 4.5 4.5 0 0 1-4.5 4.5zm21 .5h-2V22h2z"/><path class="cls-2" d="M34 8a7.94 7.94 0 0 0-6.4 3.22l-.26.35L28.78 13l.34-.48a6 6 0 0 1 9.89.19l.34.51 1.45-1.45-.24-.34A8 8 0 0 0 34 8z"/><path class="cls-2" d="M25.53 9a11 11 0 0 1 17.07.19l.35.44 1.43-1.43-.28-.35a13 13 0 0 0-20-.19l-.34.34 1.42 1.42zM45 22h2v24h-2zM26 36.5a4.5 4.5 0 1 0 4.5 4.5 4.5 4.5 0 0 0-4.5-4.5zm0 7a2.5 2.5 0 1 1 2.5-2.5 2.5 2.5 0 0 1-2.5 2.5z"/><path class="cls-2" d="M47 15H21a6 6 0 0 0-6 6v26a6 6 0 0 0 6 6h26a6 6 0 0 0 6-6V21a6 6 0 0 0-6-6zm4 32a4 4 0 0 1-4 4H21a4 4 0 0 1-4-4V21a4 4 0 0 1 4-4h26a4 4 0 0 1 4 4z"/></g></svg>