<svg xmlns="http://www.w3.org/2000/svg" viewBox="0 0 68 55"><defs><style>.cls-1{fill:none}.cls-2{fill:#1d1d1f}</style></defs><g id="camera_icon_large"><path class="cls-1" d="M32.84 14.14a9.69 9.69 0 1 0 9.69 9.69 9.69 9.69 0 0 0-9.69-9.69zm4.84 9.72a1 1 0 0 1-1-1 1.91 1.91 0 0 0-1.9-1.86 1 1 0 0 1 0-2 3.91 3.91 0 0 1 3.91 3.91 1 1 0 0 1-1.01.95zM24.93 43a1 1 0 0 1-.36.9L18 49.07l2.39 2.24a20 20 0 0 1 12.38-4.42h.24a20 20 0 0 1 12.36 4.41l2.25-2.22-6.38-5.19a1 1 0 0 1-.34-.89z"/><path class="cls-1" d="M47.56 5H17.44A3.64 3.64 0 0 0 14 8.65v28.43A4 4 0 0 0 18.17 41H47.4a3.4 3.4 0 0 0 3.6-3.34v-29A3.64 3.64 0 0 0 47.56 5zM32.84 35.51a11.69 11.69 0 1 1 11.69-11.68 11.7 11.7 0 0 1-11.69 11.68z"/><path class="cls-2" d="M32.84 12.14a11.69 11.69 0 1 0 11.69 11.69 11.7 11.7 0 0 0-11.69-11.69zm0 21.38a9.69 9.69 0 1 1 9.69-9.69 9.69 9.69 0 0 1-9.69 9.68z"/><path class="cls-2" d="M34.78 19a1 1 0 0 0 0 2 1.91 1.91 0 0 1 1.91 1.91 1 1 0 1 0 2 0A3.91 3.91 0 0 0 34.78 19z"/><path class="cls-2" d="M47.56 3H17.44A5.64 5.64 0 0 0 12 8.65v28.43A6 6 0 0 0 18.17 43h4.32L15 48.94l5.35 5 .79-.57a18 18 0 0 1 11.7-4.48h.24a18.07 18.07 0 0 1 11.7 4.49l.6.59 5.3-5L43.36 43h4A5.39 5.39 0 0 0 53 37.66v-29A5.64 5.64 0 0 0 47.56 3zm-6.28 40.89l6.38 5.19-2.25 2.22a20 20 0 0 0-12.36-4.41h-.24a20 20 0 0 0-12.38 4.42L18 49.07l6.53-5.17a1 1 0 0 0 .36-.9h16a1 1 0 0 0 .39.89zM51 37.66A3.4 3.4 0 0 1 47.4 41H18.17A4 4 0 0 1 14 37.08V8.65A3.64 3.64 0 0 1 17.44 5h30.12A3.64 3.64 0 0 1 51 8.65z"/></g></svg>