<svg xmlns="http://www.w3.org/2000/svg" viewBox="0 0 68 56"><path d="M25.51 29.75a1.48 1.48 0 0 0 1.5-.94l.54-1.66a1.35 1.35 0 0 0-.3-1.31 2.21 2.21 0 0 0-1-.64l-14.8-5.94h-.06a1.78 1.78 0 0 0-.55-.09 1.93 1.93 0 0 0-1.82 1.35l-1 2.91a2 2 0 0 0 .08 1.43 1.82 1.82 0 0 0 1.09 1l15.53 3.82a2.35 2.35 0 0 0 .79.07zm6.21-7.38a1.47 1.47 0 0 0 1.36 1.12h1.76A1.38 1.38 0 0 0 36 22.8a2.18 2.18 0 0 0 .31-1.11L37.46 5.9v-.06a1.74 1.74 0 0 0-.08-.54A1.92 1.92 0 0 0 35.53 4h-3.07a1.93 1.93 0 0 0-1.32.51 1.75 1.75 0 0 0-.55 1.32l1.07 15.82a2.28 2.28 0 0 0 .06.72zm-1.27 13.99l-1.42-1a1.29 1.29 0 0 0-.76-.24 2 2 0 0 0-1.5.84L16.49 48a1.79 1.79 0 0 0-.3 1.42 2 2 0 0 0 .78 1.2l2.5 1.8a2 2 0 0 0 1.17.38 1.82 1.82 0 0 0 1.49-.74l8.46-13.45a1.65 1.65 0 0 0-.14-2.25zM34 29a1 1 0 0 0-.37.07 1 1 0 0 0-.56 1.3 1 1 0 0 0 1.3.56 1 1 0 0 0 .56-1.3A1 1 0 0 0 34 29zm17.32 19.18L41 36a2 2 0 0 0-1.51-.84 1.29 1.29 0 0 0-.76.24l-1.42 1a1.36 1.36 0 0 0-.53 1.24 2.18 2.18 0 0 0 .41 1.08l8.45 13.42a1.82 1.82 0 0 0 1.49.74 2 2 0 0 0 1.17-.38l2.5-1.8a1.87 1.87 0 0 0 .48-2.62zm7.63-27.49a1.92 1.92 0 0 0-1.82-1.35 1.79 1.79 0 0 0-.55.09l-14.83 6a2.21 2.21 0 0 0-1 .64 1.35 1.35 0 0 0-.3 1.31L41 29a1.48 1.48 0 0 0 1.5.94 2.36 2.36 0 0 0 .69-.11L58.68 26h.06a1.82 1.82 0 0 0 1.09-1 2 2 0 0 0 .08-1.43z" fill="none"/><path d="M36.78 28.88a3 3 0 1 0-1.67 3.9 3 3 0 0 0 1.67-3.9zm-2.41 2a1 1 0 0 1-1.3-.56 1 1 0 0 1 .56-1.3 1 1 0 0 1 1.3.56 1 1 0 0 1-.56 1.35zm-8.86.87a3.46 3.46 0 0 0 3.4-2.32l.54-1.65a3.35 3.35 0 0 0-.68-3.23A4.18 4.18 0 0 0 27 23.34l-14.78-5.93h-.2a3.78 3.78 0 0 0-1.16-.18 3.92 3.92 0 0 0-3.72 2.73l-1 2.91a4 4 0 0 0 .16 2.89 3.82 3.82 0 0 0 2.29 2h.16l15.48 3.81a4.34 4.34 0 0 0 1.28.18zM9.26 25.82a1.82 1.82 0 0 1-1.09-1 2 2 0 0 1-.08-1.43l1-2.91a1.93 1.93 0 0 1 1.82-1.35 1.78 1.78 0 0 1 .55.09h.06l14.8 5.94a2.21 2.21 0 0 1 1 .64 1.35 1.35 0 0 1 .3 1.31l-.62 1.7a1.48 1.48 0 0 1-1.5.94 2.35 2.35 0 0 1-.69-.11L9.29 25.83zm20.4-4.06a3.66 3.66 0 0 0 .16 1.24 3.45 3.45 0 0 0 3.26 2.5h1.76a3.38 3.38 0 0 0 2.86-1.63 4.14 4.14 0 0 0 .62-2.08L39.46 6v-.12a3.74 3.74 0 0 0-.18-1.17A3.92 3.92 0 0 0 35.53 2h-3.07a3.91 3.91 0 0 0-2.66 1 3.73 3.73 0 0 0-1.2 2.81v.16zm.93-15.92a1.75 1.75 0 0 1 .55-1.32A1.93 1.93 0 0 1 32.46 4h3.07a1.92 1.92 0 0 1 1.85 1.3 1.74 1.74 0 0 1 .08.54v.06l-1.14 15.79A2.18 2.18 0 0 1 36 22.8a1.38 1.38 0 0 1-1.16.69h-1.76a1.47 1.47 0 0 1-1.36-1.12 2.28 2.28 0 0 1-.06-.68L30.59 5.87zm1.03 28.9l-1.42-1a3.27 3.27 0 0 0-1.93-.62 4 4 0 0 0-3.06 1.58L15 46.75v.06a3.79 3.79 0 0 0-.65 3 4 4 0 0 0 1.58 2.42l2.5 1.8a4 4 0 0 0 2.34.76 3.8 3.8 0 0 0 3.1-1.55l.1-.14 8.44-13.41a3.61 3.61 0 0 0-.79-4.95zm-1 3.94l-8.51 13.45a1.82 1.82 0 0 1-1.49.74 2 2 0 0 1-1.17-.38l-2.5-1.8a2 2 0 0 1-.78-1.2 1.79 1.79 0 0 1 .3-1.42l10.29-12.13a2 2 0 0 1 1.5-.84 1.29 1.29 0 0 1 .76.24l1.42 1a1.65 1.65 0 0 1 .13 2.34zm22.22 8.2L42.58 34.79a4 4 0 0 0-3.06-1.58 3.28 3.28 0 0 0-1.93.62l-1.42 1a3.36 3.36 0 0 0-1.36 3 4.14 4.14 0 0 0 .74 2L44 53.28v.12a3.8 3.8 0 0 0 3.18 1.6 4 4 0 0 0 2.34-.76l2.5-1.8a3.94 3.94 0 0 0 1.61-2.59 3.76 3.76 0 0 0-.68-2.85zm-2 3.94l-2.5 1.8a2 2 0 0 1-1.17.38 1.82 1.82 0 0 1-1.49-.74l-8.47-13.47a2.18 2.18 0 0 1-.41-1.08 1.36 1.36 0 0 1 .53-1.24l1.42-1a1.29 1.29 0 0 1 .76-.24A2 2 0 0 1 41 36l10.3 12.13a1.87 1.87 0 0 1-.45 2.69zM61.8 23l-1-2.91a3.92 3.92 0 0 0-3.72-2.73 3.79 3.79 0 0 0-1.16.18l-.16.06L41 23.52a4.17 4.17 0 0 0-1.79 1.21 3.35 3.35 0 0 0-.66 3.27l.54 1.65a3.46 3.46 0 0 0 3.4 2.32 4.35 4.35 0 0 0 1.22-.18L59.16 28h.19a3.82 3.82 0 0 0 2.29-2 4 4 0 0 0 .16-3zm-2 2.05a1.82 1.82 0 0 1-1.09 1h-.06l-15.5 3.81a2.36 2.36 0 0 1-.69.11A1.48 1.48 0 0 1 41 29l-.54-1.66a1.35 1.35 0 0 1 .3-1.31 2.21 2.21 0 0 1 1-.64l14.83-6a1.79 1.79 0 0 1 .55-.09 1.92 1.92 0 0 1 1.82 1.35l1 2.91a2 2 0 0 1-.14 1.44z" fill="#1d1d1f"/></svg>