<svg xmlns="http://www.w3.org/2000/svg" viewBox="0 0 74 56"><defs><style>.cls-1{fill:none}.cls-2{fill:#1d1d1f}</style></defs><g id="faucet_icon_large"><path class="cls-1" d="M46.68 36a1.74 1.74 0 0 0 1.69 1.72h.14A1.74 1.74 0 0 0 50.19 36a6.22 6.22 0 0 0-1.75-3.29A6.17 6.17 0 0 0 46.68 36zM33 42.24h-8.66a.13.13 0 0 0-.13.11l-1.12 10.51a.11.11 0 0 0 0 .1.12.12 0 0 0 .09 0h11.24a.12.12 0 0 0 .12-.14l-1.39-10.47a.13.13 0 0 0-.15-.11zm12.42-23.1h6.06v-3.21a12.93 12.93 0 1 0-25.85 0v24.31h6.06V15.77a6.87 6.87 0 0 1 13.73 0z"/><path class="cls-1" d="M44.21 21.14h8.46V23h-8.46z"/><path class="cls-2" d="M53.48 19.22v-3.29a14.93 14.93 0 1 0-29.85 0v24.44a2.12 2.12 0 0 0-1.41 1.77L21.1 52.65A2.12 2.12 0 0 0 23.21 55h11.21a2.12 2.12 0 0 0 2.1-2.41l-1.39-10.5a2.12 2.12 0 0 0-1.44-1.74V15.77a4.87 4.87 0 0 1 9.73 0v3.44a1.66 1.66 0 0 0-1.21 1.6v2.51A1.68 1.68 0 0 0 43.88 25H53a1.68 1.68 0 0 0 1.68-1.68v-2.51a1.68 1.68 0 0 0-1.2-1.59zM34.54 52.86a.12.12 0 0 1-.12.14H23.21a.12.12 0 0 1-.09 0 .11.11 0 0 1 0-.1l1.12-10.51a.13.13 0 0 1 .13-.11H33a.13.13 0 0 1 .12.11zm4-43.95a6.87 6.87 0 0 0-6.86 6.86v24.47h-6.05V15.93a12.93 12.93 0 1 1 25.85 0v3.21h-6.06v-3.37a6.87 6.87 0 0 0-6.87-6.86zM52.67 23h-8.46v-1.86h8.46z"/><path class="cls-2" d="M48.43 30.24c-.64 0-3.75 3.13-3.75 5.77a3.72 3.72 0 0 0 3.69 3.72h.14A3.72 3.72 0 0 0 52.19 36c0-2.63-3.12-5.76-3.76-5.76zm.08 7.49h-.14A1.74 1.74 0 0 1 46.68 36a6.17 6.17 0 0 1 1.76-3.29A6.22 6.22 0 0 1 50.19 36a1.74 1.74 0 0 1-1.68 1.73z"/></g></svg>