<svg xmlns="http://www.w3.org/2000/svg" viewBox="0 0 68 52"><defs><style>.cls-1{fill:none}.cls-2{fill:#1d1d1f}</style></defs><g id="garage_icon_large"><path class="cls-1" d="M16 39h36v4H16zm0-6h36v4H16zm0-6h36v4H16z"/><path class="cls-1" d="M58 49V21L33.89 7.41 10 20.89V49zM14 27v-2h40v20H14V27z"/><path class="cls-2" d="M58.2 21.13l-.2-.11V49H10V20.89l-.43.24-1.57.89V51h52V22.15l-.11-.07-1.69-.95z"/><path class="cls-2" d="M62.26 21.13L34.38 5.39h-.11l-.19-.06h-.38l-.19.06h-.11L5.51 21.13a1 1 0 0 0 1 1.74l1.4-.79L8 22l1.57-.89.43-.24L33.89 7.41 58 21l.2.11 1.69 1 .11.06 1.28.72a1 1 0 1 0 1-1.74zM16 45h38V25H14v20zm0-18h36v4H16zm0 6h36v4H16zm0 6h36v4H16z"/></g></svg>