<svg xmlns="http://www.w3.org/2000/svg" viewBox="0 0 68 56"><defs><style>.cls-2{fill:#1d1d1f}</style></defs><g id="heating_icon_large"><path d="M46.64 43.5l-.64-.6V5.31A2.31 2.31 0 0 0 43.47 3 2.26 2.26 0 0 0 41 5.31V42.9l-.64.59a5.94 5.94 0 0 0-2 4.13A5.32 5.32 0 0 0 43.45 53a5.42 5.42 0 0 0 5.18-5.37 5.75 5.75 0 0 0-1.99-4.13zm-3.1 7.5a3.18 3.18 0 0 1-.54-6.3V6.5a.5.5 0 0 1 1 0v38.2a3.18 3.18 0 0 1-.46 6.3z" fill="none"/><path class="cls-2" d="M48 42V5.31A4.29 4.29 0 0 0 43.47 1 4.25 4.25 0 0 0 39 5.31V42a7.83 7.83 0 0 0-2.67 5.6 7.34 7.34 0 0 0 7.12 7.4 7.4 7.4 0 0 0 7.18-7.37A7.79 7.79 0 0 0 48 42zm-4.55 11a5.32 5.32 0 0 1-5.11-5.37 5.94 5.94 0 0 1 2-4.13l.66-.6V5.31A2.26 2.26 0 0 1 43.47 3 2.31 2.31 0 0 1 46 5.31V42.9l.64.59a5.75 5.75 0 0 1 2 4.13A5.42 5.42 0 0 1 43.45 53zM18 6h17v2H18zm5 5h12v2H23zm0 5h12v2H23zm-5 5h17v2H18zm5 5h12v2H23zm0 5h12v2H23zm-5 5h17v2H18z"/><path class="cls-2" d="M44 44.7V6.5a.5.5 0 0 0-1 0v38.2a2.5 2.5 0 0 1 1 0z"/><path class="cls-2" d="M44 44.7a3.18 3.18 0 1 0 2.72 3.14A3.16 3.16 0 0 0 44 44.7z"/></g></svg>