<svg xmlns="http://www.w3.org/2000/svg" viewBox="0 0 68 53"><defs><style>.cls-2{fill:#1d1d1f}</style></defs><g id="humidifier_icon_large"><path d="M34 6c-2.86 1-17 15-17 27.21C17 44.67 26.93 50 33.64 50h.7C41.06 50 51 44.67 51 33.21 51 21 36.83 7 34 6zm-1.56 40.25a1 1 0 0 1-1 .77h-.23c-10-2.34-11.59-12.2-11.61-12.3a1 1 0 0 1 2-.3C21.66 34.74 23 43 31.69 45a1 1 0 0 1 .75 1.25z" fill="none"/><path class="cls-2" d="M34 4c-3.26 0-19 15.85-19 29.21C15 46 26.12 52 33.64 52h.7C41.86 52 53 46 53 33.21 53 19.85 37.22 4 34 4zm.36 46h-.7C26.93 50 17 44.67 17 33.21 17 21 31.14 7 34 6c2.85 1 17 15 17 27.19C51 44.67 41.06 50 34.34 50z"/><path class="cls-2" d="M31.69 45C23 43 21.66 34.74 21.6 34.39a1 1 0 0 0-2 .3c0 .1 1.62 10 11.61 12.3h.23a1 1 0 0 0 .23-2z"/></g></svg>