<svg xmlns="http://www.w3.org/2000/svg" viewBox="0 0 68 57"><path d="M51 17.54a17.62 17.62 0 0 0-5-12.39A16.8 16.8 0 0 0 34.07 0h-.19A16.8 16.8 0 0 0 22 5.15a17.62 17.62 0 0 0-5 12.38c0 5.19 3.23 9.59 5.94 12.38a14.64 14.64 0 0 1 3.47 9.67v1h2v-1a16.38 16.38 0 0 0-4-11.08C21.89 26 19 22.05 19 17.53a15.63 15.63 0 0 1 4.43-11 14.55 14.55 0 0 1 21.14 0 15.63 15.63 0 0 1 4.43 11c0 4.52-2.92 8.46-5.37 11a16.37 16.37 0 0 0-4 11.08v1h2v-1a14.63 14.63 0 0 1 3.37-9.7c2.74-2.78 6-7.18 6-12.37zM27 44h14v2H27zm0 5h14v2H27zm3 5h8v2h-8z" fill="#1d1d1f"/></svg>