<svg xmlns="http://www.w3.org/2000/svg" viewBox="0 0 68 49"><defs><style>.cls-1{fill:none}.cls-2{fill:#1d1d1f}</style></defs><g id="outlet_icon_large"><path class="cls-1" d="M34 33c-1.18 0-2 1.47-2 2.73V38h4v-2.26c0-1.27-.82-2.74-2-2.74zm6-14h3v6h-3zm-15 0h3v6h-3z"/><path class="cls-1" d="M46 10H22a6 6 0 0 0-6 6v24a6 6 0 0 0 6 6h24a6 6 0 0 0 6-6V16a6 6 0 0 0-6-6zM28 27h-3a2 2 0 0 1-2-2v-6a2 2 0 0 1 2-2h3a2 2 0 0 1 2 2v6a2 2 0 0 1-2 2zm10 11a2 2 0 0 1-2 2h-4a2 2 0 0 1-2-2v-2.26c0-2.29 1.61-4.74 4-4.74s4 2.45 4 4.73zm7-13a2 2 0 0 1-2 2h-3a2 2 0 0 1-2-2v-6a2 2 0 0 1 2-2h3a2 2 0 0 1 2 2z"/><path class="cls-2" d="M34 31c-2.39 0-4 2.45-4 4.73V38a2 2 0 0 0 2 2h4a2 2 0 0 0 2-2v-2.26c0-2.29-1.61-4.74-4-4.74zm2 7h-4v-2.26c0-1.27.82-2.73 2-2.73s2 1.47 2 2.73zm-6-19a2 2 0 0 0-2-2h-3a2 2 0 0 0-2 2v6a2 2 0 0 0 2 2h3a2 2 0 0 0 2-2zm-2 6h-3v-6h3zm15-8h-3a2 2 0 0 0-2 2v6a2 2 0 0 0 2 2h3a2 2 0 0 0 2-2v-6a2 2 0 0 0-2-2zm0 8h-3v-6h3z"/><path class="cls-2" d="M46 8H22a8 8 0 0 0-8 8v24a8 8 0 0 0 8 8h24a8 8 0 0 0 8-8V16a8 8 0 0 0-8-8zm6 32a6 6 0 0 1-6 6H22a6 6 0 0 1-6-6V16a6 6 0 0 1 6-6h24a6 6 0 0 1 6 6z"/></g></svg>