<svg xmlns="http://www.w3.org/2000/svg" viewBox="0 0 68 58"><path d="M34.79 39.17l-.59-1.91A18.42 18.42 0 0 0 40.67 34l.33-.24v-6.6l-.2.16a14.39 14.39 0 0 1-6 3.21l-.59-1.91a12.45 12.45 0 0 0 5.32-2.83c.43-.36.91-.75 1.48-1.18v-5.95l-.24.2a13.85 13.85 0 0 1-6 3.26l-.59-1.91a11.92 11.92 0 0 0 5.25-2.87c.45-.39.94-.8 1.54-1.26V5.5a1 1 0 0 0-1-1H28a1 1 0 0 0-1 1v48a1 1 0 0 0 1 1h12a1 1 0 0 0 1-1V36.2a19.57 19.57 0 0 1-6.21 2.97z" fill="none"/><path d="M43.68 31.93l-.68.43v-6.73l.79-.51c2.58-1.59 6.12-1.68 8.1-1.58L50.57 25a1 1 0 1 0 1.5 1.32l3.3-3.75L52 19.29a1 1 0 1 0-1.41 1.42l.8.79A16.56 16.56 0 0 0 43 23.27v-6.16c.24-.17.5-.33.79-.51 3.73-2.3 9.68-1.3 9.74-1.28l.35-2c-.27 0-6.49-1.1-10.87 1.41V5a3 3 0 0 0-3-3H28a3 3 0 0 0-3 3v16.87a14.16 14.16 0 0 0-3.7 2.27A24.16 24.16 0 0 1 18.68 26 11.48 11.48 0 0 1 13 27.52l-.1 2h.23a13.62 13.62 0 0 0 6.5-1.82 25.71 25.71 0 0 0 2.84-2A18.05 18.05 0 0 1 25 24v6.29a14.17 14.17 0 0 0-3.7 2.27 24.08 24.08 0 0 1-2.62 1.83A12.08 12.08 0 0 1 13 36v2h.1a14 14 0 0 0 6.6-1.88 25.69 25.69 0 0 0 2.84-2A18 18 0 0 1 25 32.49v6.36a14.16 14.16 0 0 0-3.7 2.27 24.08 24.08 0 0 1-2.62 1.83 11.77 11.77 0 0 1-5.55 1.61v2h.11a13.78 13.78 0 0 0 6.5-1.87 25.69 25.69 0 0 0 2.84-2A18 18 0 0 1 25 41v13a3 3 0 0 0 3 3h12a3 3 0 0 0 3-3V34.77c.51-.36 1.08-.74 1.73-1.14 3.71-2.29 8.71-1.3 8.76-1.29l.41-2c-.24-.01-5.82-1.13-10.22 1.59zM40 55H28a1 1 0 0 1-1-1V5a1 1 0 0 1 1-1h12a1 1 0 0 1 1 1v11.08c-.6.45-1.09.87-1.54 1.26a11.92 11.92 0 0 1-5.25 2.87l.59 1.91a13.85 13.85 0 0 0 6-3.26l.24-.2v5.93c-.57.42-1 .82-1.48 1.18a12.45 12.45 0 0 1-5.32 2.83l.59 1.91a14.39 14.39 0 0 0 6-3.21l.2-.16v6.6l-.33.24a18.42 18.42 0 0 1-6.47 3.28l.59 1.91a19.57 19.57 0 0 0 6.21-3V54A1 1 0 0 1 40 55z" fill="#1d1d1f"/></svg>