<svg xmlns="http://www.w3.org/2000/svg" viewBox="0 0 76 47.67"><defs><style>.cls-1{fill:#1d1d1f}</style></defs><g id="garage_icon_large"><path class="cls-1" d="M65.9 34.73h-53a5.12 5.12 0 0 0-5.1 5.1v1.5a5.13 5.13 0 0 0 5.05 5.18h53A5.14 5.14 0 0 0 71 41.34v-1.51a5.11 5.11 0 0 0-5.1-5.1zm3 6.61a3 3 0 0 1-.87 2.1 3.39 3.39 0 0 1-2.11 1.22h-53a3.36 3.36 0 0 1-3-3.38V39.8a3 3 0 0 1 .88-2.1 4.18 4.18 0 0 1 2.13-1.06h53a3.26 3.26 0 0 1 3 3.16z"/><path class="cls-1" d="M16.84 38.39a2.56 2.56 0 0 0-3.53 0 2.51 2.51 0 0 0 0 3.54 2.5 2.5 0 0 0 4.27-1.76 2.48 2.48 0 0 0-.74-1.78zm-1.76 2.82a1.05 1.05 0 1 1 0-2.1 1 1 0 0 1 .74.31 1.05 1.05 0 0 1-.74 1.8zm8.18-1.36a2.46 2.46 0 0 0-.71-1.46 2.55 2.55 0 0 0-3.54 0 2.5 2.5 0 0 0 1.76 4.26 2.49 2.49 0 0 0 2.47-2.18v-.62zm-1.42.31a1.05 1.05 0 0 1-.31.75 1.08 1.08 0 0 1-1.49 0 1 1 0 0 1-.31-.74 1.05 1.05 0 1 1 2.1 0zm7.16-.31a2.51 2.51 0 0 0-.71-1.46 2.48 2.48 0 0 0-1.77-.73 2.5 2.5 0 1 0 1.76 4.27 2.47 2.47 0 0 0 .72-1.45v-.63zm-3.22 1.06a1.05 1.05 0 1 1 1.49 0 1.08 1.08 0 0 1-1.51 0zm38.97-.37a1.88 1.88 0 1 1-1.88-1.88 1.88 1.88 0 0 1 1.88 1.88zm6.16-24.23a6.82 6.82 0 0 1-2.17 5 1 1 0 0 1-.7.28 1 1 0 0 1-.76-.33 1 1 0 0 1-.28-.76 1 1 0 0 1 .32-.72 4.74 4.74 0 0 0 0-7 1 1 0 0 1-.05-1.45A1 1 0 0 1 68 11a1 1 0 0 1 .74.27 6.83 6.83 0 0 1 2.17 5.04zm-16.25 6.94a1 1 0 1 1-1.4 1.51 11.53 11.53 0 0 1-3.68-8.46 11.5 11.5 0 0 1 3.71-8.47 1 1 0 0 1 .71-.28 1 1 0 0 1 .71.33 1 1 0 0 1 0 1.46 9.47 9.47 0 0 0 0 13.91zm9.94-8.84a2.76 2.76 0 0 1 .81 2v17.3h-2.07V16.37a.75.75 0 0 0-.21-.51.73.73 0 0 0-1 0 .71.71 0 0 0-.21.51v17.29h-2.07V16.37a2.8 2.8 0 0 1 .81-2 2.86 2.86 0 0 1 3.94.04z"/><path class="cls-1" d="M75.43 16.31a11.54 11.54 0 0 1-3.69 8.46A1 1 0 0 1 71 25a1 1 0 0 1-.7-1.79 9.48 9.48 0 0 0 0-13.91 1 1 0 0 1-.05-1.46 1 1 0 0 1 .75-.28 1.09 1.09 0 0 1 .74.28 11.54 11.54 0 0 1 3.7 8.47zm-17.76-3.49a4.75 4.75 0 0 0 0 7 1 1 0 0 1 .33.72 1 1 0 0 1-1.73.79 6.81 6.81 0 0 1 0-10A1 1 0 0 1 57 11a1 1 0 0 1 .72.33 1 1 0 0 1-.06 1.46zm-33.84 3.49a6.82 6.82 0 0 1-2.17 5 1 1 0 0 1-.7.28 1 1 0 0 1-.76-.33 1 1 0 0 1-.27-.74 1 1 0 0 1 .32-.72 4.74 4.74 0 0 0 0-7 1 1 0 0 1-.05-1.45 1 1 0 0 1 .71-.33 1 1 0 0 1 .74.27 6.83 6.83 0 0 1 2.18 5.02zM7.58 23.25a1 1 0 1 1-1.4 1.51A11.53 11.53 0 0 1 2.5 16.3a11.5 11.5 0 0 1 3.71-8.47A1 1 0 0 1 7 7.55a1 1 0 0 1 .71.33 1 1 0 0 1 0 1.46 9.47 9.47 0 0 0 0 13.91zm9.94-8.84a2.76 2.76 0 0 1 .81 2v17.3h-2.07V16.37a.75.75 0 0 0-.21-.51.73.73 0 0 0-1 0 .71.71 0 0 0-.21.51v17.29h-2.07V16.37a2.8 2.8 0 0 1 .81-2 2.86 2.86 0 0 1 3.94.04z"/><path class="cls-1" d="M28.35 16.31a11.54 11.54 0 0 1-3.69 8.46A1 1 0 0 1 24 25a1 1 0 0 1-.7-1.79 9.48 9.48 0 0 0 0-13.91 1 1 0 0 1-.05-1.46 1 1 0 0 1 .72-.33 1.09 1.09 0 0 1 .74.28 11.54 11.54 0 0 1 3.7 8.47zm-17.76-3.49a4.75 4.75 0 0 0 0 7 1 1 0 0 1 .33.72 1 1 0 0 1-1.73.79 6.81 6.81 0 0 1 0-10 1 1 0 0 1 .74-.33 1 1 0 0 1 .72.33 1 1 0 0 1-.06 1.46z"/></g></svg>