<svg xmlns="http://www.w3.org/2000/svg" viewBox="0 0 68 56"><defs><style>.cls-1{fill:none}.cls-2{fill:#1d1d1f;opacity:.95}</style></defs><g id="security_icon_large"><path class="cls-1" d="M17 9.51v22.73c0 9.09 4.49 14.17 8.26 16.83A26.25 26.25 0 0 0 33.68 53a26.24 26.24 0 0 0 8.42-3.9C48 44.9 51 39.24 51 32.24V9.53c-2.71-.16-11.69-1.06-17.32-6.11C28.29 8.27 20 9.29 17 9.51zm31.76 2.42v6L22.62 42.47c-2.64-2.19-3.38-8.12-3.38-8.12l24-23.77a24.27 24.27 0 0 0 5.52 1.35z"/><path class="cls-1" d="M22.84 39.52l23.92-22.43v-3.41a30.37 30.37 0 0 1-3-.81L21.37 35a16.89 16.89 0 0 0 1.47 4.52z"/><path class="cls-2" d="M51.8 7.56c-.12 0-11.61-.23-17.48-6.31a.92.92 0 0 0-1.28 0C27.17 7.33 16 7.56 15.88 7.56a.87.87 0 0 0-.88.87v23.81c0 9.76 4.81 15.43 9.11 18.47A27.54 27.54 0 0 0 33.5 55h.36a27.54 27.54 0 0 0 9.39-4.27A21.88 21.88 0 0 0 53 32.24V8.43c0-.43-.71-.87-1.2-.87zM51 32.24c0 7-3 12.66-8.9 16.83A26.24 26.24 0 0 1 33.68 53a26.25 26.25 0 0 1-8.42-3.9C21.49 46.41 17 41.33 17 32.24V9.51c3-.21 11.29-1.24 16.68-6.09 5.63 5 14.61 6 17.32 6.11z"/><path class="cls-2" d="M22.62 42.47L48.76 18v-6a24.27 24.27 0 0 1-5.51-1.36l-24 23.77s.75 5.87 3.37 8.06zm21.16-29.6a30.37 30.37 0 0 0 3 .81v3.41L22.84 39.52A16.89 16.89 0 0 1 21.37 35z"/></g></svg>