<svg xmlns="http://www.w3.org/2000/svg" viewBox="0 0 68 50"><defs><style>.cls-2{fill:#1d1d1f}</style></defs><g id="sensors_icon_large"><ellipse cx="34.21" cy="28" rx="2.39" ry="2.26" fill="none"/><path class="cls-2" d="M34.21 23.74a4.26 4.26 0 1 0 4.4 4.26 4.33 4.33 0 0 0-4.4-4.26zm0 6.51a2.26 2.26 0 1 1 2.4-2.25 2.33 2.33 0 0 1-2.4 2.26zm7.19-11.03a1 1 0 0 0 0 1.41 10.06 10.06 0 0 1 0 14.72 1 1 0 0 0 1.38 1.45 12.06 12.06 0 0 0 0-17.62 1 1 0 0 0-1.38.04z"/><path class="cls-2" d="M49 13.23a1 1 0 0 0-1.37 1.45 18.1 18.1 0 0 1 0 26.63A1 1 0 0 0 49 42.77a20.1 20.1 0 0 0 0-29.54z"/><path class="cls-2" d="M55.11 7.27a1 1 0 1 0-1.37 1.46 26.16 26.16 0 0 1 0 38.54 1 1 0 1 0 1.37 1.46 28.15 28.15 0 0 0 0-41.46zM23.79 28A10.12 10.12 0 0 1 27 20.64a1 1 0 1 0-1.38-1.45 12.06 12.06 0 0 0 0 17.62A1 1 0 0 0 27 35.36 10.11 10.11 0 0 1 23.79 28z"/><path class="cls-2" d="M15 28a18.22 18.22 0 0 1 5.84-13.31 1 1 0 0 0-1.37-1.45 20.11 20.11 0 0 0 0 29.54 1 1 0 0 0 1.38-1.45A18.22 18.22 0 0 1 15 28z"/><path class="cls-2" d="M6.21 28a26.32 26.32 0 0 1 8.48-19.27 1 1 0 1 0-1.37-1.46 28.15 28.15 0 0 0 0 41.46 1 1 0 0 0 1.37-1.46A26.33 26.33 0 0 1 6.21 28z"/></g></svg>