<svg xmlns="http://www.w3.org/2000/svg" viewBox="0 0 68 56"><path d="M33.5 9.72a4 4 0 1 1-4 4 4 4 0 0 1 4-4m0-2a6 6 0 1 0 6 6 6 6 0 0 0-6-6zm0 18.78a10.13 10.13 0 1 1-10.12 10.13A10.14 10.14 0 0 1 33.5 26.5m0-2a12.13 12.13 0 1 0 12.13 12.13A12.13 12.13 0 0 0 33.5 24.5zm0 8.4a3.72 3.72 0 1 1-3.72 3.72 3.73 3.73 0 0 1 3.72-3.72m0-2a5.72 5.72 0 1 0 5.72 5.72 5.72 5.72 0 0 0-5.72-5.72zM46.5 3a4 4 0 0 1 4 4v42a4 4 0 0 1-4 4h-26a4 4 0 0 1-4-4V7a4 4 0 0 1 4-4h26m0-2h-26a6 6 0 0 0-6 6v42a6 6 0 0 0 6 6h26a6 6 0 0 0 6-6V7a6 6 0 0 0-6-6z" fill="#1d1d1f"/></svg>