<svg xmlns="http://www.w3.org/2000/svg" viewBox="0 0 102 52"><defs><style>.cls-1{fill:none}</style></defs><g id="sprinklers_icon_large"><path class="cls-1" d="M51.12 41.3l4.98-4.36h-9.97l4.99 4.36z"/><path d="M68.4 9.6a1 1 0 0 0 .77-.36c1.09-1.3 2.22-2.53 3.36-3.65a1 1 0 1 0-1.4-1.43A46.838 46.838 0 0 0 67.64 8a1 1 0 0 0 .76 1.6zm7.65 13.23a43.57 43.57 0 0 0-8.34 11.89 1 1 0 0 0 1.83.82 41.45 41.45 0 0 1 7.94-11.31 1 1 0 0 0-1.43-1.4zM63.1 15a1 1 0 0 0-1.38.33A73.05 73.05 0 0 0 56 26.53a1 1 0 0 0 .58 1.29 1 1 0 0 0 .36.07 1 1 0 0 0 .93-.64 72.55 72.55 0 0 1 5.56-10.88A1 1 0 0 0 63.1 15zM5.54 7q-1.43-.59-3-1.15a1 1 0 0 0-.69 1.88q1.5.55 2.89 1.12A1 1 0 0 0 5.54 7zm95.4-.55a1 1 0 0 0-1.28-.6q-1.54.56-3 1.15a1 1 0 1 0 .76 1.85q1.39-.57 2.89-1.12a1 1 0 0 0 .63-1.28zm-15.11 7.43A45.34 45.34 0 0 0 82.26 17a1 1 0 1 0 1.4 1.43 43.33 43.33 0 0 1 3.41-3 1 1 0 0 0-1.24-1.57zm-68.55 0A1 1 0 0 0 16 15.45a43.33 43.33 0 0 1 3.41 3A1 1 0 1 0 20.85 17a45.34 45.34 0 0 0-3.57-3.12zm8.96 8.95a1 1 0 0 0-1.43 1.4 41.45 41.45 0 0 1 7.94 11.31 1 1 0 1 0 1.83-.82 43.57 43.57 0 0 0-8.34-11.89zM33 4.16a1 1 0 0 0-1.4 1.43c1.19 1.12 2.32 2.35 3.4 3.65A1 1 0 1 0 36.54 8 39.57 39.57 0 0 0 33 4.16zm25.76 30.78H43.47a1 1 0 0 0-.66 1.75l7.31 6.39V50a1 1 0 0 0 2 0v-6.87l7.31-6.4a1 1 0 0 0-.66-1.75zm-7.64 6.36l-5-4.36h10zm-5.58-16.24a1 1 0 0 0 .9-1.43 79.7 79.7 0 0 0-4.18-7.69 1 1 0 1 0-1.7 1 77.81 77.81 0 0 1 4.07 7.49 1 1 0 0 0 .91.63z" fill="#1d1d1f"/><path class="cls-1" d="M-.08 4h101v48h-101z"/></g></svg>