<svg xmlns="http://www.w3.org/2000/svg" viewBox="0 0 68 55"><defs><style>.cls-1{fill:none}.cls-2{fill:#1d1d1f}</style></defs><g id="shades_icon_large"><path class="cls-1" d="M39 27V17a1 1 0 0 0-1-1h-8a1 1 0 0 0-1 1v10zm-10 2v10a1 1 0 0 0 1 1h8a1 1 0 0 0 1-1V29z"/><path class="cls-1" d="M48 4H20a2 2 0 0 0-2 2v44a2 2 0 0 0 2 2h28a2 2 0 0 0 2-2V6a2 2 0 0 0-2-2zM34 7.5A1.5 1.5 0 1 1 32.5 9 1.5 1.5 0 0 1 34 7.5zm0 41a1.5 1.5 0 1 1 1.5-1.5 1.5 1.5 0 0 1-1.5 1.5zm7-9.5a3 3 0 0 1-3 3h-8a3 3 0 0 1-3-3V17a3 3 0 0 1 3-3h8a3 3 0 0 1 3 3z"/><path class="cls-2" d="M48 2H20a4 4 0 0 0-4 4v44a4 4 0 0 0 4 4h28a4 4 0 0 0 4-4V6a4 4 0 0 0-4-4zm2 48a2 2 0 0 1-2 2H20a2 2 0 0 1-2-2V6a2 2 0 0 1 2-2h28a2 2 0 0 1 2 2z"/><path class="cls-2" d="M38 14h-8a3 3 0 0 0-3 3v22a3 3 0 0 0 3 3h8a3 3 0 0 0 3-3V17a3 3 0 0 0-3-3zm-8 2h8a1 1 0 0 1 1 1v10H29V17a1 1 0 0 1 1-1zm8 24h-8a1 1 0 0 1-1-1V29h10v10a1 1 0 0 1-1 1z"/><circle class="cls-2" cx="34" cy="9" r="1.5"/><circle class="cls-2" cx="34" cy="47" r="1.5"/></g></svg>